<?xml version="1.0" encoding="UTF-8"?>
<svg id="Layer_1" data-name="Layer 1" xmlns="http://www.w3.org/2000/svg" viewBox="0 0 607.53 114.53">
  <path d="M323.48,93.21v-43.18c-.25-1.64-.31-3.24-1.52-4.4-1.03-.99-2.74-1.47-4.25-1.47l-19.68.04c-2.55,0-5.2.7-7.22,2.13-1.46,1.03-2.65,2.11-4.03,3.26v43.61s-27.9,0-27.9,0v-43.56c-.26-1.52-.37-2.97-1.45-4.03-.97-.95-2.61-1.45-4.05-1.45l-19.69.03c-2.61,0-5.31.66-7.42,2.11-1.41.97-2.51,2.08-3.91,3.24v43.66s-28.01,0-28.01,0V22.05s23.46,0,23.46,0l2.15,7.83c4.51-3.63,8.05-6.24,13.83-7.18,2.59-.3,5.06-.63,7.72-.63l23.48.03c3.53,0,6.84.74,10.06,1.93,3.59,1.32,6.49,3.67,8.54,6.81,4.54-3.94,8.52-7.09,14.52-8.08,2.66-.33,5.21-.69,7.94-.69l23.71.03c3.6,0,6.97.77,10.23,2,8.67,3.28,11.03,11.72,11.38,20.27v48.83s-27.88,0-27.88,0Z"/>
  <path d="M460.18,44.69v25.74c0,3.86-.6,7.47-1.88,11-1.67,4.62-5,8.07-9.62,9.78-3.27,1.21-6.65,1.95-10.26,1.96l-28.5.04c-3.35-.17-6.43-.43-9.64-1.19-3.35-.96-6.14-2.7-9.04-4.73v27.25s-28.02,0-28.02,0V22.06s23.46-.02,23.46-.02l2.16,7.83c4.36-3.54,8.22-6.34,13.83-7.14,2.59-.37,5.06-.66,7.73-.66l28.02.02c3.55,0,6.87.73,10.09,1.89,4.62,1.67,8.01,5.07,9.71,9.67,1.3,3.5,1.95,7.07,1.95,11.04ZM426.09,71.84c1.75,0,3.52-.35,4.69-1.43,1.07-1,1.5-2.77,1.5-4.29v-17c0-1.5-.43-3.3-1.5-4.28-1.31-1.21-3.25-1.44-5.05-1.44h-21.82c-3.05.01-6.13.46-8.63,2.11-1.46.96-2.59,2.15-4.03,3.31v17.53c1.35,1.2,2.62,2.49,4.18,3.45,2.59,1.59,5.63,2.05,8.72,2.05h21.94Z"/>
  <path d="M154.06,72.55c2.52-.8,2.47-4.22,2.5-6.42h26.8s-.03,7.44-.03,7.44c-.01,3.02-.53,5.87-1.45,8.7-1.51,4.35-4.61,7.69-8.99,9.27-2.7.97-5.45,1.65-8.46,1.65h-55.1c-3.57-.01-6.86-.79-10.08-1.96-4.35-1.59-7.64-4.77-9.36-9.05-1.38-3.42-2.15-6.99-2.15-10.79v-27.51c0-3.8.77-7.37,2.15-10.79,1.7-4.22,4.91-7.36,9.18-8.98,3.26-1.23,6.62-2.02,10.25-2.02h52.22c3.58,0,6.88.75,10.1,1.9,4.66,1.67,8,5.13,9.75,9.72,1.25,3.5,1.91,7.06,1.92,10.87l.04,17h-67.75c.08,2.94-.66,8.29,1.74,10.15,1.34,1.03,3.15,1.33,4.91,1.33l28.27.02c1.25,0,2.4-.17,3.54-.53ZM156.53,47.92c.08-3.19.1-7.2-3.19-8.09-1.26-.34-2.6-.53-4-.53h-26.59c-1.4,0-2.74.2-3.99.55-3.4.94-3.29,5.34-3.09,8.08h40.86Z"/>
  <path d="M578.05,72.61c2.7-.77,2.64-4.17,2.67-6.48h26.8s-.03,7.44-.03,7.44c-.01,3.02-.53,5.87-1.45,8.7-1.51,4.35-4.61,7.69-8.99,9.27-2.7.97-5.45,1.65-8.46,1.65h-55.1c-3.57-.01-6.86-.79-10.08-1.96-4.35-1.59-7.64-4.77-9.36-9.05-1.38-3.42-2.15-6.99-2.15-10.79v-27.51c0-3.8.77-7.37,2.15-10.79,1.7-4.22,4.91-7.36,9.18-8.98,3.26-1.23,6.62-2.02,10.25-2.02h52.22c3.58,0,6.88.75,10.1,1.9,4.66,1.67,8,5.13,9.75,9.72,1.25,3.5,1.91,7.06,1.92,10.87l.04,17h-67.75c.08,2.94-.66,8.29,1.74,10.15,1.34,1.03,3.15,1.33,4.91,1.33l28.27.02c1.19,0,2.28-.16,3.36-.47ZM580.69,47.92c.08-3.19.1-7.2-3.19-8.09-1.26-.34-2.6-.53-4-.53h-26.59c-1.4,0-2.74.2-3.99.55-3.4.94-3.29,5.34-3.09,8.08h40.86Z"/>
  <path d="M79.72,71.88v21.32s-42.61-.03-42.61-.03c-3.06,0-5.87-.67-8.61-1.68-7.7-2.83-10.09-10.1-10.38-17.74v-30.64s-18.11,0-18.11,0v-21.08s18.11-.01,18.11-.01l5.32-15.81h22.57s.01,15.81.01,15.81h33.71s-.02,21.09-.02,21.09h-33.71s.02,23.84.02,23.84c0,1.43.53,2.69,1.31,3.78,1.29.73,2.6,1.12,4.16,1.12h28.23Z"/>
  <rect x="471.74" y="0" width="28.37" height="93.2"/>
</svg>